# xmcd
#
# Track frame offsets: 
#        150
#        25325
#        42129
#        61408
#        89592
#        121373
#        147070
#        163311
#        180678
#        213996
#        237640
#        269973
#        288758
#        310062
#
# Disc length: 4523 seconds
#
# Revision: 1
# Processed by: cddbd v1.5.1PL0 Copyright (c) Steve Scherf et al.
# Submitted via: ExactAudioCopy v0.95a5
#
DISCID=d511a90e
DTITLE=Ruthie Foster - Stages
DYEAR=2004
DGENRE=Blues
TTITLE0=Ocean of Tears
TTITLE1=Crossover
TTITLE2=Another Rain Song
TTITLE3=Real Love
TTITLE4=God Bless the Child
TTITLE5=Turn Me On
TTITLE6=Death Came a Knockin'
TTITLE7=Get Out of My Way
TTITLE8=Lost in the City
TTITLE9=Prayin' for Rain
TTITLE10=Church
TTITLE11=Walk On
TTITLE12=Oh! Susannah
TTITLE13=Full Circle
EXTD=
EXTT0=
EXTT1=
EXTT2=
EXTT3=
EXTT4=
EXTT5=
EXTT6=
EXTT7=
EXTT8=
EXTT9=
EXTT10=
EXTT11=
EXTT12=
EXTT13=
PLAYORDER=
